{
    "asset" : {
        "generator" : "Khronos glTF Blender I/O v1.8.19",
        "version" : "2.0"
    },
    "scene" : 0,
    "scenes" : [
        {
            "name" : "Scene",
            "nodes" : [
                0,
                1,
                2,
                3,
                4,
                5,
                6,
                7
            ]
        }
    ],
    "nodes" : [
        {
            "mesh" : 0,
            "name" : "amphitheatre",
            "translation" : [
                -36.95168685913086,
                2.461371898651123,
                -7.845402717590332
            ]
        },
        {
            "mesh" : 1,
            "name" : "base",
            "scale" : [
                1.451151967048645,
                1.451151967048645,
                2.203613042831421
            ],
            "translation" : [
                0.029250159859657288,
                -0.3212796151638031,
                0
            ]
        },
        {
            "mesh" : 2,
            "name" : "bridge",
            "rotation" : [
                0,
                0.05618027597665787,
                0,
                0.9984206557273865
            ],
            "scale" : [
                5.022800922393799,
                1.0580384731292725,
                23.32489585876465
            ],
            "translation" : [
                53.66048049926758,
                8.190876007080078,
                0
            ]
        },
        {
            "mesh" : 3,
            "name" : "building",
            "scale" : [
                1.451151967048645,
                0.7828616499900818,
                2.203613042831421
            ],
            "translation" : [
                67.31619262695312,
                13.927752494812012,
                -74.90921783447266
            ]
        },
        {
            "mesh" : 4,
            "name" : "building-gate",
            "scale" : [
                1.4553126096725464,
                1.4553126096725464,
                1.7415649890899658
            ],
            "translation" : [
                64.76966094970703,
                9.52013111114502,
                -75.92608642578125
            ]
        },
        {
            "mesh" : 5,
            "name" : "walkway",
            "scale" : [
                1.4511518478393555,
                1.0419777631759644,
                2.203612804412842
            ],
            "translation" : [
                -29.275724411010742,
                6.138036251068115,
                -116.15406036376953
            ]
        },
        {
            "mesh" : 6,
            "name" : "walkway-2",
            "scale" : [
                1.451151967048645,
                1.451151967048645,
                2.203613042831421
            ],
            "translation" : [
                0.029250159859657288,
                -0.3212796151638031,
                0
            ]
        },
        {
            "mesh" : 7,
            "name" : "cafeteria",
            "scale" : [
                1.451151967048645,
                0.9064774513244629,
                2.203613042831421
            ],
            "translation" : [
                -39.9367561340332,
                14.968635559082031,
                -37.536041259765625
            ]
        }
    ],
    "materials" : [
        {
            "doubleSided" : true,
            "emissiveFactor" : [
                1,
                1,
                1
            ],
            "name" : "glow-yellow",
            "pbrMetallicRoughness" : {}
        },
        {
            "doubleSided" : true,
            "name" : "Material.001",
            "pbrMetallicRoughness" : {
                "baseColorTexture" : {
                    "index" : 0
                },
                "metallicFactor" : 0
            }
        },
        {
            "doubleSided" : true,
            "emissiveFactor" : [
                0.05837798801627736,
                0.09658112669857033,
                0.0993845775631752
            ],
            "name" : "building-lights",
            "pbrMetallicRoughness" : {}
        }
    ],
    "meshes" : [
        {
            "name" : "Cube.004",
            "primitives" : [
                {
                    "attributes" : {
                        "POSITION" : 0,
                        "NORMAL" : 1,
                        "TEXCOORD_0" : 2
                    },
                    "indices" : 3,
                    "material" : 0
                },
                {
                    "attributes" : {
                        "POSITION" : 4,
                        "NORMAL" : 5,
                        "TEXCOORD_0" : 6
                    },
                    "indices" : 7,
                    "material" : 1
                }
            ]
        },
        {
            "name" : "Cube.005",
            "primitives" : [
                {
                    "attributes" : {
                        "POSITION" : 8,
                        "NORMAL" : 9,
                        "TEXCOORD_0" : 10
                    },
                    "indices" : 11,
                    "material" : 1
                }
            ]
        },
        {
            "name" : "Cube",
            "primitives" : [
                {
                    "attributes" : {
                        "POSITION" : 12,
                        "NORMAL" : 13,
                        "TEXCOORD_0" : 14
                    },
                    "indices" : 15,
                    "material" : 1
                }
            ]
        },
        {
            "name" : "Cube.003",
            "primitives" : [
                {
                    "attributes" : {
                        "POSITION" : 16,
                        "NORMAL" : 17,
                        "TEXCOORD_0" : 18
                    },
                    "indices" : 19,
                    "material" : 1
                }
            ]
        },
        {
            "name" : "Cube.007",
            "primitives" : [
                {
                    "attributes" : {
                        "POSITION" : 20,
                        "NORMAL" : 21,
                        "TEXCOORD_0" : 22
                    },
                    "indices" : 23,
                    "material" : 2
                }
            ]
        },
        {
            "name" : "Cube.008",
            "primitives" : [
                {
                    "attributes" : {
                        "POSITION" : 24,
                        "NORMAL" : 25,
                        "TEXCOORD_0" : 26
                    },
                    "indices" : 27,
                    "material" : 1
                }
            ]
        },
        {
            "name" : "Cube.001",
            "primitives" : [
                {
                    "attributes" : {
                        "POSITION" : 28,
                        "NORMAL" : 29,
                        "TEXCOORD_0" : 30
                    },
                    "indices" : 31,
                    "material" : 1
                }
            ]
        },
        {
            "name" : "Cube.002",
            "primitives" : [
                {
                    "attributes" : {
                        "POSITION" : 32,
                        "NORMAL" : 33,
                        "TEXCOORD_0" : 34
                    },
                    "indices" : 35,
                    "material" : 1
                }
            ]
        }
    ],
    "textures" : [
        {
            "sampler" : 0,
            "source" : 0
        }
    ],
    "images" : [
        {
            "bufferView" : 8,
            "mimeType" : "image/png",
            "name" : "color-palette-01"
        }
    ],
    "accessors" : [
        {
            "bufferView" : 0,
            "componentType" : 5126,
            "count" : 4,
            "max" : [
                3.0070507526397705,
                0.6248950958251953,
                26.066247940063477
            ],
            "min" : [
                -3.2010068893432617,
                -2.8807730674743652,
                25.90525245666504
            ],
            "type" : "VEC3"
        },
        {
            "bufferView" : 1,
            "componentType" : 5126,
            "count" : 4,
            "type" : "VEC3"
        },
        {
            "bufferView" : 2,
            "componentType" : 5126,
            "count" : 4,
            "type" : "VEC2"
        },
        {
            "bufferView" : 3,
            "componentType" : 5123,
            "count" : 6,
            "type" : "SCALAR"
        },
        {
            "bufferView" : 4,
            "componentType" : 5126,
            "count" : 9092,
            "max" : [
                42.546566009521484,
                3.9988434314727783,
                36.8126106262207
            ],
            "min" : [
                -41.93870162963867,
                -3.316016674041748,
                -24.115795135498047
            ],
            "type" : "VEC3"
        },
        {
            "bufferView" : 5,
            "componentType" : 5126,
            "count" : 9092,
            "type" : "VEC3"
        },
        {
            "bufferView" : 6,
            "componentType" : 5126,
            "count" : 9092,
            "type" : "VEC2"
        },
        {
            "bufferView" : 7,
            "componentType" : 5123,
            "count" : 16281,
            "type" : "SCALAR"
        },
        {
            "bufferView" : 9,
            "componentType" : 5126,
            "count" : 282,
            "max" : [
                111.7050552368164,
                4.719320774078369,
                32.527591705322266
            ],
            "min" : [
                -96.14525604248047,
                -0.648722767829895,
                -79.43126678466797
            ],
            "type" : "VEC3"
        },
        {
            "bufferView" : 10,
            "componentType" : 5126,
            "count" : 282,
            "type" : "VEC3"
        },
        {
            "bufferView" : 11,
            "componentType" : 5126,
            "count" : 282,
            "type" : "VEC2"
        },
        {
            "bufferView" : 12,
            "componentType" : 5123,
            "count" : 528,
            "type" : "SCALAR"
        },
        {
            "bufferView" : 13,
            "componentType" : 5126,
            "count" : 920,
            "max" : [
                2.0846426486968994,
                0.45343703031539917,
                2.180945634841919
            ],
            "min" : [
                -1.850713849067688,
                -9.273289680480957,
                -1.4849488735198975
            ],
            "type" : "VEC3"
        },
        {
            "bufferView" : 14,
            "componentType" : 5126,
            "count" : 920,
            "type" : "VEC3"
        },
        {
            "bufferView" : 15,
            "componentType" : 5126,
            "count" : 920,
            "type" : "VEC2"
        },
        {
            "bufferView" : 16,
            "componentType" : 5123,
            "count" : 1392,
            "type" : "SCALAR"
        },
        {
            "bufferView" : 17,
            "componentType" : 5126,
            "count" : 993,
            "max" : [
                28.394184112548828,
                14.271038055419922,
                15.058525085449219
            ],
            "min" : [
                -25.05656623840332,
                -10.369181632995605,
                -14.37298583984375
            ],
            "type" : "VEC3"
        },
        {
            "bufferView" : 18,
            "componentType" : 5126,
            "count" : 993,
            "type" : "VEC3"
        },
        {
            "bufferView" : 19,
            "componentType" : 5126,
            "count" : 993,
            "type" : "VEC2"
        },
        {
            "bufferView" : 20,
            "componentType" : 5123,
            "count" : 1932,
            "type" : "SCALAR"
        },
        {
            "bufferView" : 21,
            "componentType" : 5126,
            "count" : 36,
            "max" : [
                0.3550453186035156,
                2.1843910217285156,
                5.605533599853516
            ],
            "min" : [
                -0.35504150390625,
                -1.5954694747924805,
                -5.605815887451172
            ],
            "type" : "VEC3"
        },
        {
            "bufferView" : 22,
            "componentType" : 5126,
            "count" : 36,
            "type" : "VEC3"
        },
        {
            "bufferView" : 23,
            "componentType" : 5126,
            "count" : 36,
            "type" : "VEC2"
        },
        {
            "bufferView" : 24,
            "componentType" : 5123,
            "count" : 60,
            "type" : "SCALAR"
        },
        {
            "bufferView" : 25,
            "componentType" : 5126,
            "count" : 2220,
            "max" : [
                30.151443481445312,
                10.420930862426758,
                5.705913543701172
            ],
            "min" : [
                -29.838512420654297,
                -2.142894744873047,
                -6.084712982177734
            ],
            "type" : "VEC3"
        },
        {
            "bufferView" : 26,
            "componentType" : 5126,
            "count" : 2220,
            "type" : "VEC3"
        },
        {
            "bufferView" : 27,
            "componentType" : 5126,
            "count" : 2220,
            "type" : "VEC2"
        },
        {
            "bufferView" : 28,
            "componentType" : 5123,
            "count" : 3330,
            "type" : "SCALAR"
        },
        {
            "bufferView" : 29,
            "componentType" : 5126,
            "count" : 7352,
            "max" : [
                -23.880271911621094,
                4.426375865936279,
                -27.072826385498047
            ],
            "min" : [
                -29.42726707458496,
                3.7305588722229004,
                -47.95819854736328
            ],
            "type" : "VEC3"
        },
        {
            "bufferView" : 30,
            "componentType" : 5126,
            "count" : 7352,
            "type" : "VEC3"
        },
        {
            "bufferView" : 31,
            "componentType" : 5126,
            "count" : 7352,
            "type" : "VEC2"
        },
        {
            "bufferView" : 32,
            "componentType" : 5123,
            "count" : 11028,
            "type" : "SCALAR"
        },
        {
            "bufferView" : 33,
            "componentType" : 5126,
            "count" : 1377,
            "max" : [
                31.48493766784668,
                6.741174697875977,
                6.116955757141113
            ],
            "min" : [
                -24.048593521118164,
                -9.855563163757324,
                -6.648349761962891
            ],
            "type" : "VEC3"
        },
        {
            "bufferView" : 34,
            "componentType" : 5126,
            "count" : 1377,
            "type" : "VEC3"
        },
        {
            "bufferView" : 35,
            "componentType" : 5126,
            "count" : 1377,
            "type" : "VEC2"
        },
        {
            "bufferView" : 36,
            "componentType" : 5123,
            "count" : 2229,
            "type" : "SCALAR"
        }
    ],
    "bufferViews" : [
        {
            "buffer" : 0,
            "byteLength" : 48,
            "byteOffset" : 0
        },
        {
            "buffer" : 0,
            "byteLength" : 48,
            "byteOffset" : 48
        },
        {
            "buffer" : 0,
            "byteLength" : 32,
            "byteOffset" : 96
        },
        {
            "buffer" : 0,
            "byteLength" : 12,
            "byteOffset" : 128
        },
        {
            "buffer" : 0,
            "byteLength" : 109104,
            "byteOffset" : 140
        },
        {
            "buffer" : 0,
            "byteLength" : 109104,
            "byteOffset" : 109244
        },
        {
            "buffer" : 0,
            "byteLength" : 72736,
            "byteOffset" : 218348
        },
        {
            "buffer" : 0,
            "byteLength" : 32562,
            "byteOffset" : 291084
        },
        {
            "buffer" : 0,
            "byteLength" : 1126,
            "byteOffset" : 323648
        },
        {
            "buffer" : 0,
            "byteLength" : 3384,
            "byteOffset" : 324776
        },
        {
            "buffer" : 0,
            "byteLength" : 3384,
            "byteOffset" : 328160
        },
        {
            "buffer" : 0,
            "byteLength" : 2256,
            "byteOffset" : 331544
        },
        {
            "buffer" : 0,
            "byteLength" : 1056,
            "byteOffset" : 333800
        },
        {
            "buffer" : 0,
            "byteLength" : 11040,
            "byteOffset" : 334856
        },
        {
            "buffer" : 0,
            "byteLength" : 11040,
            "byteOffset" : 345896
        },
        {
            "buffer" : 0,
            "byteLength" : 7360,
            "byteOffset" : 356936
        },
        {
            "buffer" : 0,
            "byteLength" : 2784,
            "byteOffset" : 364296
        },
        {
            "buffer" : 0,
            "byteLength" : 11916,
            "byteOffset" : 367080
        },
        {
            "buffer" : 0,
            "byteLength" : 11916,
            "byteOffset" : 378996
        },
        {
            "buffer" : 0,
            "byteLength" : 7944,
            "byteOffset" : 390912
        },
        {
            "buffer" : 0,
            "byteLength" : 3864,
            "byteOffset" : 398856
        },
        {
            "buffer" : 0,
            "byteLength" : 432,
            "byteOffset" : 402720
        },
        {
            "buffer" : 0,
            "byteLength" : 432,
            "byteOffset" : 403152
        },
        {
            "buffer" : 0,
            "byteLength" : 288,
            "byteOffset" : 403584
        },
        {
            "buffer" : 0,
            "byteLength" : 120,
            "byteOffset" : 403872
        },
        {
            "buffer" : 0,
            "byteLength" : 26640,
            "byteOffset" : 403992
        },
        {
            "buffer" : 0,
            "byteLength" : 26640,
            "byteOffset" : 430632
        },
        {
            "buffer" : 0,
            "byteLength" : 17760,
            "byteOffset" : 457272
        },
        {
            "buffer" : 0,
            "byteLength" : 6660,
            "byteOffset" : 475032
        },
        {
            "buffer" : 0,
            "byteLength" : 88224,
            "byteOffset" : 481692
        },
        {
            "buffer" : 0,
            "byteLength" : 88224,
            "byteOffset" : 569916
        },
        {
            "buffer" : 0,
            "byteLength" : 58816,
            "byteOffset" : 658140
        },
        {
            "buffer" : 0,
            "byteLength" : 22056,
            "byteOffset" : 716956
        },
        {
            "buffer" : 0,
            "byteLength" : 16524,
            "byteOffset" : 739012
        },
        {
            "buffer" : 0,
            "byteLength" : 16524,
            "byteOffset" : 755536
        },
        {
            "buffer" : 0,
            "byteLength" : 11016,
            "byteOffset" : 772060
        },
        {
            "buffer" : 0,
            "byteLength" : 4458,
            "byteOffset" : 783076
        }
    ],
    "samplers" : [
        {
            "magFilter" : 9728,
            "minFilter" : 9984
        }
    ],
    "buffers" : [
        {
            "byteLength" : 787536,
            "uri" : "data:application/octet-stream;base64,"
        }
    ]
}
