{
    "asset" : {
        "generator" : "Khronos glTF Blender I/O v1.8.19",
        "version" : "2.0"
    },
    "scene" : 0,
    "scenes" : [
        {
            "name" : "Scene",
            "nodes" : [
                0,
                1,
                2,
                3,
                4,
                5
            ]
        }
    ],
    "nodes" : [
        {
            "mesh" : 0,
            "name" : "Cube.001",
            "scale" : [
                9.936678886413574,
                -0.35320061445236206,
                3.161715030670166
            ]
        },
        {
            "mesh" : 1,
            "name" : "Cube",
            "scale" : [
                47.89086151123047,
                2.4850962162017822,
                7.392522811889648
            ]
        },
        {
            "mesh" : 2,
            "name" : "Cube.002",
            "scale" : [
                48.68260955810547,
                2.5261807441711426,
                7.5147385597229
            ]
        },
        {
            "mesh" : 3,
            "name" : "Cube.003",
            "scale" : [
                9.936678886413574,
                -0.323269248008728,
                3.161715030670166
            ]
        },
        {
            "mesh" : 4,
            "name" : "Cube.004",
            "scale" : [
                47.89086151123047,
                2.4850962162017822,
                7.392522811889648
            ]
        },
        {
            "mesh" : 5,
            "name" : "Cube.005",
            "scale" : [
                25.25365447998047,
                1.3104329109191895,
                3.8982014656066895
            ]
        }
    ],
    "materials" : [
        {
            "doubleSided" : true,
            "name" : "Material",
            "pbrMetallicRoughness" : {
                "baseColorTexture" : {
                    "index" : 0
                },
                "metallicFactor" : 0,
                "roughnessFactor" : 0.4000000059604645
            }
        },
        {
            "doubleSided" : true,
            "emissiveFactor" : [
                0,
                0.12370727211236954,
                0.08221330493688583
            ],
            "name" : "glow-teal",
            "pbrMetallicRoughness" : {}
        },
        {
            "doubleSided" : true,
            "emissiveFactor" : [
                1,
                1,
                1
            ],
            "name" : "glow-yellow",
            "pbrMetallicRoughness" : {}
        }
    ],
    "meshes" : [
        {
            "name" : "Cube.002",
            "primitives" : [
                {
                    "attributes" : {
                        "POSITION" : 0,
                        "NORMAL" : 1,
                        "TEXCOORD_0" : 2
                    },
                    "indices" : 3,
                    "material" : 0
                }
            ]
        },
        {
            "name" : "Cube.003",
            "primitives" : [
                {
                    "attributes" : {
                        "POSITION" : 4,
                        "NORMAL" : 5,
                        "TEXCOORD_0" : 6
                    },
                    "indices" : 7,
                    "material" : 0
                }
            ]
        },
        {
            "name" : "Cube.004",
            "primitives" : [
                {
                    "attributes" : {
                        "POSITION" : 8,
                        "NORMAL" : 9,
                        "TEXCOORD_0" : 10
                    },
                    "indices" : 11,
                    "material" : 1
                }
            ]
        },
        {
            "name" : "Cube.005",
            "primitives" : [
                {
                    "attributes" : {
                        "POSITION" : 12,
                        "NORMAL" : 13,
                        "TEXCOORD_0" : 14
                    },
                    "indices" : 15,
                    "material" : 2
                }
            ]
        },
        {
            "name" : "Cube.006",
            "primitives" : [
                {
                    "attributes" : {
                        "POSITION" : 16,
                        "NORMAL" : 17,
                        "TEXCOORD_0" : 18
                    },
                    "indices" : 19,
                    "material" : 1
                }
            ]
        },
        {
            "name" : "Cube.001",
            "primitives" : [
                {
                    "attributes" : {
                        "POSITION" : 20,
                        "NORMAL" : 21,
                        "TEXCOORD_0" : 22
                    },
                    "indices" : 23,
                    "material" : 0
                }
            ]
        }
    ],
    "textures" : [
        {
            "sampler" : 0,
            "source" : 0
        }
    ],
    "images" : [
        {
            "bufferView" : 4,
            "mimeType" : "image/png",
            "name" : "color-palette-01"
        }
    ],
    "accessors" : [
        {
            "bufferView" : 0,
            "componentType" : 5126,
            "count" : 8875,
            "max" : [
                2.1387939453125,
                -0.046755049377679825,
                9.066993713378906
            ],
            "min" : [
                -2.1323559284210205,
                -17.348237991333008,
                -5.171722888946533
            ],
            "type" : "VEC3"
        },
        {
            "bufferView" : 1,
            "componentType" : 5126,
            "count" : 8875,
            "type" : "VEC3"
        },
        {
            "bufferView" : 2,
            "componentType" : 5126,
            "count" : 8875,
            "type" : "VEC2"
        },
        {
            "bufferView" : 3,
            "componentType" : 5123,
            "count" : 16398,
            "type" : "SCALAR"
        },
        {
            "bufferView" : 5,
            "componentType" : 5126,
            "count" : 495,
            "max" : [
                1.5497324466705322,
                7.892817974090576,
                6.352668762207031
            ],
            "min" : [
                -1.1623542308807373,
                0.04767932742834091,
                -7.2498860359191895
            ],
            "type" : "VEC3"
        },
        {
            "bufferView" : 6,
            "componentType" : 5126,
            "count" : 495,
            "type" : "VEC3"
        },
        {
            "bufferView" : 7,
            "componentType" : 5126,
            "count" : 495,
            "type" : "VEC2"
        },
        {
            "bufferView" : 8,
            "componentType" : 5123,
            "count" : 798,
            "type" : "SCALAR"
        },
        {
            "bufferView" : 9,
            "componentType" : 5126,
            "count" : 32,
            "max" : [
                1.2106753587722778,
                6.628509521484375,
                -0.49968329071998596
            ],
            "min" : [
                0.783418595790863,
                3.0963311195373535,
                -5.116997718811035
            ],
            "type" : "VEC3"
        },
        {
            "bufferView" : 10,
            "componentType" : 5126,
            "count" : 32,
            "type" : "VEC3"
        },
        {
            "bufferView" : 11,
            "componentType" : 5126,
            "count" : 32,
            "type" : "VEC2"
        },
        {
            "bufferView" : 12,
            "componentType" : 5123,
            "count" : 48,
            "type" : "SCALAR"
        },
        {
            "bufferView" : 13,
            "componentType" : 5126,
            "count" : 88,
            "max" : [
                0.29811471700668335,
                0.03403317928314209,
                8.66220474243164
            ],
            "min" : [
                -0.29167717695236206,
                -17.2674503326416,
                8.27830982208252
            ],
            "type" : "VEC3"
        },
        {
            "bufferView" : 14,
            "componentType" : 5126,
            "count" : 88,
            "type" : "VEC3"
        },
        {
            "bufferView" : 15,
            "componentType" : 5126,
            "count" : 88,
            "type" : "VEC2"
        },
        {
            "bufferView" : 16,
            "componentType" : 5123,
            "count" : 132,
            "type" : "SCALAR"
        },
        {
            "bufferView" : 17,
            "componentType" : 5126,
            "count" : 5,
            "max" : [
                0.8164690732955933,
                2.839233636856079,
                -2.2449941635131836
            ],
            "min" : [
                0.8091264963150024,
                2.1211423873901367,
                -3.490957021713257
            ],
            "type" : "VEC3"
        },
        {
            "bufferView" : 18,
            "componentType" : 5126,
            "count" : 5,
            "type" : "VEC3"
        },
        {
            "bufferView" : 19,
            "componentType" : 5126,
            "count" : 5,
            "type" : "VEC2"
        },
        {
            "bufferView" : 20,
            "componentType" : 5123,
            "count" : 9,
            "type" : "SCALAR"
        },
        {
            "bufferView" : 21,
            "componentType" : 5126,
            "count" : 1151,
            "max" : [
                0.7462310791015625,
                10.856653213500977,
                -1.9991906881332397
            ],
            "min" : [
                -0.7499274015426636,
                3.124640703201294,
                -6.731542587280273
            ],
            "type" : "VEC3"
        },
        {
            "bufferView" : 22,
            "componentType" : 5126,
            "count" : 1151,
            "type" : "VEC3"
        },
        {
            "bufferView" : 23,
            "componentType" : 5126,
            "count" : 1151,
            "type" : "VEC2"
        },
        {
            "bufferView" : 24,
            "componentType" : 5123,
            "count" : 1791,
            "type" : "SCALAR"
        }
    ],
    "bufferViews" : [
        {
            "buffer" : 0,
            "byteLength" : 106500,
            "byteOffset" : 0
        },
        {
            "buffer" : 0,
            "byteLength" : 106500,
            "byteOffset" : 106500
        },
        {
            "buffer" : 0,
            "byteLength" : 71000,
            "byteOffset" : 213000
        },
        {
            "buffer" : 0,
            "byteLength" : 32796,
            "byteOffset" : 284000
        },
        {
            "buffer" : 0,
            "byteLength" : 1126,
            "byteOffset" : 316796
        },
        {
            "buffer" : 0,
            "byteLength" : 5940,
            "byteOffset" : 317924
        },
        {
            "buffer" : 0,
            "byteLength" : 5940,
            "byteOffset" : 323864
        },
        {
            "buffer" : 0,
            "byteLength" : 3960,
            "byteOffset" : 329804
        },
        {
            "buffer" : 0,
            "byteLength" : 1596,
            "byteOffset" : 333764
        },
        {
            "buffer" : 0,
            "byteLength" : 384,
            "byteOffset" : 335360
        },
        {
            "buffer" : 0,
            "byteLength" : 384,
            "byteOffset" : 335744
        },
        {
            "buffer" : 0,
            "byteLength" : 256,
            "byteOffset" : 336128
        },
        {
            "buffer" : 0,
            "byteLength" : 96,
            "byteOffset" : 336384
        },
        {
            "buffer" : 0,
            "byteLength" : 1056,
            "byteOffset" : 336480
        },
        {
            "buffer" : 0,
            "byteLength" : 1056,
            "byteOffset" : 337536
        },
        {
            "buffer" : 0,
            "byteLength" : 704,
            "byteOffset" : 338592
        },
        {
            "buffer" : 0,
            "byteLength" : 264,
            "byteOffset" : 339296
        },
        {
            "buffer" : 0,
            "byteLength" : 60,
            "byteOffset" : 339560
        },
        {
            "buffer" : 0,
            "byteLength" : 60,
            "byteOffset" : 339620
        },
        {
            "buffer" : 0,
            "byteLength" : 40,
            "byteOffset" : 339680
        },
        {
            "buffer" : 0,
            "byteLength" : 18,
            "byteOffset" : 339720
        },
        {
            "buffer" : 0,
            "byteLength" : 13812,
            "byteOffset" : 339740
        },
        {
            "buffer" : 0,
            "byteLength" : 13812,
            "byteOffset" : 353552
        },
        {
            "buffer" : 0,
            "byteLength" : 9208,
            "byteOffset" : 367364
        },
        {
            "buffer" : 0,
            "byteLength" : 3582,
            "byteOffset" : 376572
        }
    ],
    "samplers" : [
        {
            "magFilter" : 9728,
            "minFilter" : 9984
        }
    ],
    "buffers" : [
        {
            "byteLength" : 380156,
            "uri" : "data:application/octet-stream;base64,"
        }
    ]
}
