{
    "asset" : {
        "generator" : "Khronos glTF Blender I/O v1.8.19",
        "version" : "2.0"
    },
    "scene" : 0,
    "scenes" : [
        {
            "name" : "Scene",
            "nodes" : [
                0,
                1,
                2,
                3,
                4,
                5,
                6
            ]
        }
    ],
    "nodes" : [
        {
            "mesh" : 0,
            "name" : "Cube",
            "scale" : [
                4.840712547302246,
                3.1352813243865967,
                3.4924280643463135
            ],
            "translation" : [
                0,
                -0.2960953712463379,
                0
            ]
        },
        {
            "mesh" : 1,
            "name" : "microservices",
            "rotation" : [
                0.6966123580932617,
                -0.14650049805641174,
                0.14494501054286957,
                0.6872116923332214
            ],
            "translation" : [
                15.341911315917969,
                0.3300459682941437,
                26.76339340209961
            ]
        },
        {
            "mesh" : 2,
            "name" : "full-stack-development",
            "rotation" : [
                0.665887713432312,
                -0.23789407312870026,
                0.23789408802986145,
                0.6658876538276672
            ],
            "scale" : [
                1.1794774532318115,
                1.123572826385498,
                1.984802484512329
            ],
            "translation" : [
                20.55982208251953,
                0.7567867636680603,
                24.91315460205078
            ]
        },
        {
            "mesh" : 3,
            "name" : "forging-skills",
            "rotation" : [
                0.7071068286895752,
                0,
                0,
                0.7071068286895752
            ],
            "scale" : [
                0.29499948024749756,
                0.29499948024749756,
                0.29499948024749756
            ],
            "translation" : [
                13.36905288696289,
                9.344547271728516,
                2.890538454055786
            ]
        },
        {
            "mesh" : 4,
            "name" : "Cube.001",
            "scale" : [
                7.249909400939941,
                0.26773974299430847,
                0.2591366767883301
            ],
            "translation" : [
                13.367753982543945,
                7.014072418212891,
                3.571086883544922
            ]
        },
        {
            "mesh" : 5,
            "name" : "java",
            "rotation" : [
                0,
                -0.26682645082473755,
                0,
                0.963744580745697
            ],
            "translation" : [
                17.327266693115234,
                -0.20563355088233948,
                30.821796417236328
            ]
        },
        {
            "mesh" : 6,
            "name" : "javascript",
            "rotation" : [
                0,
                -0.14745430648326874,
                0,
                0.989068865776062
            ],
            "translation" : [
                21.398193359375,
                -0.11964957416057587,
                32.937034606933594
            ]
        }
    ],
    "animations" : [
        {
            "channels" : [
                {
                    "sampler" : 0,
                    "target" : {
                        "node" : 3,
                        "path" : "scale"
                    }
                }
            ],
            "name" : "Text.001Action",
            "samplers" : [
                {
                    "input" : 28,
                    "interpolation" : "LINEAR",
                    "output" : 29
                }
            ]
        }
    ],
    "materials" : [
        {
            "doubleSided" : true,
            "name" : "Material",
            "pbrMetallicRoughness" : {
                "baseColorTexture" : {
                    "index" : 0
                },
                "metallicFactor" : 0
            }
        },
        {
            "doubleSided" : true,
            "emissiveFactor" : [
                0,
                0.2010001391172409,
                1
            ],
            "name" : "gllow-blue",
            "pbrMetallicRoughness" : {}
        },
        {
            "doubleSided" : true,
            "emissiveFactor" : [
                1,
                0.15208903700113297,
                0.0699843280017376
            ],
            "name" : "glow-forging-skiils",
            "pbrMetallicRoughness" : {}
        }
    ],
    "meshes" : [
        {
            "name" : "Cube",
            "primitives" : [
                {
                    "attributes" : {
                        "POSITION" : 0,
                        "NORMAL" : 1,
                        "TEXCOORD_0" : 2
                    },
                    "indices" : 3,
                    "material" : 0
                }
            ]
        },
        {
            "name" : "Microservices",
            "primitives" : [
                {
                    "attributes" : {
                        "POSITION" : 4,
                        "NORMAL" : 5,
                        "TEXCOORD_0" : 6
                    },
                    "indices" : 7,
                    "material" : 1
                }
            ]
        },
        {
            "name" : "full-stack-development",
            "primitives" : [
                {
                    "attributes" : {
                        "POSITION" : 8,
                        "NORMAL" : 9,
                        "TEXCOORD_0" : 10
                    },
                    "indices" : 11,
                    "material" : 2
                }
            ]
        },
        {
            "name" : "Text.002",
            "primitives" : [
                {
                    "attributes" : {
                        "POSITION" : 12,
                        "NORMAL" : 13,
                        "TEXCOORD_0" : 14
                    },
                    "indices" : 15,
                    "material" : 2
                }
            ]
        },
        {
            "name" : "Cube.001",
            "primitives" : [
                {
                    "attributes" : {
                        "POSITION" : 16,
                        "NORMAL" : 17,
                        "TEXCOORD_0" : 18
                    },
                    "indices" : 19,
                    "material" : 2
                }
            ]
        },
        {
            "name" : "Text.001",
            "primitives" : [
                {
                    "attributes" : {
                        "POSITION" : 20,
                        "NORMAL" : 21,
                        "TEXCOORD_0" : 22
                    },
                    "indices" : 23,
                    "material" : 1
                }
            ]
        },
        {
            "name" : "Text.003",
            "primitives" : [
                {
                    "attributes" : {
                        "POSITION" : 24,
                        "NORMAL" : 25,
                        "TEXCOORD_0" : 26
                    },
                    "indices" : 27,
                    "material" : 1
                }
            ]
        }
    ],
    "textures" : [
        {
            "sampler" : 0,
            "source" : 0
        }
    ],
    "images" : [
        {
            "bufferView" : 4,
            "mimeType" : "image/png",
            "name" : "color-palette-01"
        }
    ],
    "accessors" : [
        {
            "bufferView" : 0,
            "componentType" : 5126,
            "count" : 1802,
            "max" : [
                8.122267723083496,
                8.148341178894043,
                11.20799446105957
            ],
            "min" : [
                -8.050171852111816,
                -0.005830347537994385,
                -3.676220417022705
            ],
            "type" : "VEC3"
        },
        {
            "bufferView" : 1,
            "componentType" : 5126,
            "count" : 1802,
            "type" : "VEC3"
        },
        {
            "bufferView" : 2,
            "componentType" : 5126,
            "count" : 1802,
            "type" : "VEC2"
        },
        {
            "bufferView" : 3,
            "componentType" : 5123,
            "count" : 3144,
            "type" : "SCALAR"
        },
        {
            "bufferView" : 5,
            "componentType" : 5126,
            "count" : 5108,
            "max" : [
                3.2657124996185303,
                0.20000000298023224,
                0.35760167241096497
            ],
            "min" : [
                -3.8772878646850586,
                -0.20000000298023224,
                -0.34239837527275085
            ],
            "type" : "VEC3"
        },
        {
            "bufferView" : 6,
            "componentType" : 5126,
            "count" : 5108,
            "type" : "VEC3"
        },
        {
            "bufferView" : 7,
            "componentType" : 5126,
            "count" : 5108,
            "type" : "VEC2"
        },
        {
            "bufferView" : 8,
            "componentType" : 5123,
            "count" : 9216,
            "type" : "SCALAR"
        },
        {
            "bufferView" : 9,
            "componentType" : 5126,
            "count" : 4134,
            "max" : [
                8.524065017700195,
                0.20000000298023224,
                0.4113123416900635
            ],
            "min" : [
                -6.5431365966796875,
                -0.20000000298023224,
                -0.4286877512931824
            ],
            "type" : "VEC3"
        },
        {
            "bufferView" : 10,
            "componentType" : 5126,
            "count" : 4134,
            "type" : "VEC3"
        },
        {
            "bufferView" : 11,
            "componentType" : 5126,
            "count" : 4134,
            "type" : "VEC2"
        },
        {
            "bufferView" : 12,
            "componentType" : 5123,
            "count" : 7464,
            "type" : "SCALAR"
        },
        {
            "bufferView" : 13,
            "componentType" : 5126,
            "count" : 5298,
            "max" : [
                4.148000240325928,
                0.20000000298023224,
                0.3500000238418579
            ],
            "min" : [
                -4.1479997634887695,
                -0.20000000298023224,
                -0.3500000238418579
            ],
            "type" : "VEC3"
        },
        {
            "bufferView" : 14,
            "componentType" : 5126,
            "count" : 5298,
            "type" : "VEC3"
        },
        {
            "bufferView" : 15,
            "componentType" : 5126,
            "count" : 5298,
            "type" : "VEC2"
        },
        {
            "bufferView" : 16,
            "componentType" : 5123,
            "count" : 9828,
            "type" : "SCALAR"
        },
        {
            "bufferView" : 17,
            "componentType" : 5126,
            "count" : 58,
            "max" : [
                1,
                1,
                1
            ],
            "min" : [
                -1.8180339336395264,
                -1,
                -29.06298828125
            ],
            "type" : "VEC3"
        },
        {
            "bufferView" : 18,
            "componentType" : 5126,
            "count" : 58,
            "type" : "VEC3"
        },
        {
            "bufferView" : 19,
            "componentType" : 5126,
            "count" : 58,
            "type" : "VEC2"
        },
        {
            "bufferView" : 20,
            "componentType" : 5123,
            "count" : 108,
            "type" : "SCALAR"
        },
        {
            "bufferView" : 21,
            "componentType" : 5126,
            "count" : 434,
            "max" : [
                0.9800000786781311,
                0.20000000298023224,
                0.5710000395774841
            ],
            "min" : [
                -1.2700001001358032,
                -0.20000000298023224,
                -0.3450000286102295
            ],
            "type" : "VEC3"
        },
        {
            "bufferView" : 22,
            "componentType" : 5126,
            "count" : 434,
            "type" : "VEC3"
        },
        {
            "bufferView" : 23,
            "componentType" : 5126,
            "count" : 434,
            "type" : "VEC2"
        },
        {
            "bufferView" : 24,
            "componentType" : 5123,
            "count" : 816,
            "type" : "SCALAR"
        },
        {
            "bufferView" : 25,
            "componentType" : 5126,
            "count" : 3002,
            "max" : [
                4.0970001220703125,
                0.20000000298023224,
                0.5710000395774841
            ],
            "min" : [
                -1.2700001001358032,
                -0.20000000298023224,
                -0.3500000238418579
            ],
            "type" : "VEC3"
        },
        {
            "bufferView" : 26,
            "componentType" : 5126,
            "count" : 3002,
            "type" : "VEC3"
        },
        {
            "bufferView" : 27,
            "componentType" : 5126,
            "count" : 3002,
            "type" : "VEC2"
        },
        {
            "bufferView" : 28,
            "componentType" : 5123,
            "count" : 5352,
            "type" : "SCALAR"
        },
        {
            "bufferView" : 29,
            "componentType" : 5126,
            "count" : 61,
            "max" : [
                2.5416666666666665
            ],
            "min" : [
                0.041666666666666664
            ],
            "type" : "SCALAR"
        },
        {
            "bufferView" : 30,
            "componentType" : 5126,
            "count" : 61,
            "type" : "VEC3"
        }
    ],
    "bufferViews" : [
        {
            "buffer" : 0,
            "byteLength" : 21624,
            "byteOffset" : 0
        },
        {
            "buffer" : 0,
            "byteLength" : 21624,
            "byteOffset" : 21624
        },
        {
            "buffer" : 0,
            "byteLength" : 14416,
            "byteOffset" : 43248
        },
        {
            "buffer" : 0,
            "byteLength" : 6288,
            "byteOffset" : 57664
        },
        {
            "buffer" : 0,
            "byteLength" : 1126,
            "byteOffset" : 63952
        },
        {
            "buffer" : 0,
            "byteLength" : 61296,
            "byteOffset" : 65080
        },
        {
            "buffer" : 0,
            "byteLength" : 61296,
            "byteOffset" : 126376
        },
        {
            "buffer" : 0,
            "byteLength" : 40864,
            "byteOffset" : 187672
        },
        {
            "buffer" : 0,
            "byteLength" : 18432,
            "byteOffset" : 228536
        },
        {
            "buffer" : 0,
            "byteLength" : 49608,
            "byteOffset" : 246968
        },
        {
            "buffer" : 0,
            "byteLength" : 49608,
            "byteOffset" : 296576
        },
        {
            "buffer" : 0,
            "byteLength" : 33072,
            "byteOffset" : 346184
        },
        {
            "buffer" : 0,
            "byteLength" : 14928,
            "byteOffset" : 379256
        },
        {
            "buffer" : 0,
            "byteLength" : 63576,
            "byteOffset" : 394184
        },
        {
            "buffer" : 0,
            "byteLength" : 63576,
            "byteOffset" : 457760
        },
        {
            "buffer" : 0,
            "byteLength" : 42384,
            "byteOffset" : 521336
        },
        {
            "buffer" : 0,
            "byteLength" : 19656,
            "byteOffset" : 563720
        },
        {
            "buffer" : 0,
            "byteLength" : 696,
            "byteOffset" : 583376
        },
        {
            "buffer" : 0,
            "byteLength" : 696,
            "byteOffset" : 584072
        },
        {
            "buffer" : 0,
            "byteLength" : 464,
            "byteOffset" : 584768
        },
        {
            "buffer" : 0,
            "byteLength" : 216,
            "byteOffset" : 585232
        },
        {
            "buffer" : 0,
            "byteLength" : 5208,
            "byteOffset" : 585448
        },
        {
            "buffer" : 0,
            "byteLength" : 5208,
            "byteOffset" : 590656
        },
        {
            "buffer" : 0,
            "byteLength" : 3472,
            "byteOffset" : 595864
        },
        {
            "buffer" : 0,
            "byteLength" : 1632,
            "byteOffset" : 599336
        },
        {
            "buffer" : 0,
            "byteLength" : 36024,
            "byteOffset" : 600968
        },
        {
            "buffer" : 0,
            "byteLength" : 36024,
            "byteOffset" : 636992
        },
        {
            "buffer" : 0,
            "byteLength" : 24016,
            "byteOffset" : 673016
        },
        {
            "buffer" : 0,
            "byteLength" : 10704,
            "byteOffset" : 697032
        },
        {
            "buffer" : 0,
            "byteLength" : 244,
            "byteOffset" : 707736
        },
        {
            "buffer" : 0,
            "byteLength" : 732,
            "byteOffset" : 707980
        }
    ],
    "samplers" : [
        {
            "magFilter" : 9728,
            "minFilter" : 9984
        }
    ],
    "buffers" : [
        {
            "byteLength" : 708712,
            "uri" : "data:application/octet-stream;base64,"
        }
    ]
}
