{
    "asset" : {
        "generator" : "Khronos glTF Blender I/O v1.8.19",
        "version" : "2.0"
    },
    "scene" : 0,
    "scenes" : [
        {
            "name" : "Scene",
            "nodes" : [
                0,
                1,
                2,
                3,
                4
            ]
        }
    ],
    "nodes" : [
        {
            "mesh" : 0,
            "name" : "Cube",
            "scale" : [
                3,
                1,
                1
            ],
            "translation" : [
                0,
                -0.033447980880737305,
                0
            ]
        },
        {
            "mesh" : 1,
            "name" : "Cube.001",
            "scale" : [
                3.7656259536743164,
                1.0407634973526,
                1.0407634973526
            ],
            "translation" : [
                0,
                -0.033447980880737305,
                0
            ]
        },
        {
            "mesh" : 2,
            "name" : "Cube.002",
            "scale" : [
                0.9673588871955872,
                0.06043782830238342,
                0.1365738958120346
            ],
            "translation" : [
                0.7530818581581116,
                1.064245581626892,
                8.259658813476562
            ]
        },
        {
            "mesh" : 3,
            "name" : "Cube.003",
            "scale" : [
                3.07572078704834,
                1,
                0.0410192646086216
            ],
            "translation" : [
                0,
                -0.12816283106803894,
                0.355779230594635
            ]
        },
        {
            "mesh" : 4,
            "name" : "Cube.004",
            "rotation" : [
                0,
                0.00011872480536112562,
                -1,
                -2.821299744937278e-07
            ],
            "scale" : [
                0.9673588871955872,
                0.06043782830238342,
                0.1365738958120346
            ],
            "translation" : [
                -0.7400884032249451,
                1.064245581626892,
                8.259658813476562
            ]
        }
    ],
    "materials" : [
        {
            "doubleSided" : true,
            "name" : "Material",
            "pbrMetallicRoughness" : {
                "baseColorTexture" : {
                    "index" : 0
                },
                "metallicFactor" : 0,
                "roughnessFactor" : 0.5
            }
        },
        {
            "doubleSided" : true,
            "emissiveFactor" : [
                0.9110330790281296,
                1,
                0
            ],
            "name" : "glow-green",
            "pbrMetallicRoughness" : {}
        },
        {
            "doubleSided" : true,
            "emissiveFactor" : [
                0.06328257266432047,
                1,
                1
            ],
            "name" : "glow-blue",
            "pbrMetallicRoughness" : {}
        }
    ],
    "meshes" : [
        {
            "name" : "Cube",
            "primitives" : [
                {
                    "attributes" : {
                        "POSITION" : 0,
                        "NORMAL" : 1,
                        "TEXCOORD_0" : 2
                    },
                    "indices" : 3,
                    "material" : 0
                }
            ]
        },
        {
            "name" : "Cube.001",
            "primitives" : [
                {
                    "attributes" : {
                        "POSITION" : 4,
                        "NORMAL" : 5,
                        "TEXCOORD_0" : 6
                    },
                    "indices" : 7,
                    "material" : 1
                }
            ]
        },
        {
            "name" : "Cube.002",
            "primitives" : [
                {
                    "attributes" : {
                        "POSITION" : 8,
                        "NORMAL" : 9,
                        "TEXCOORD_0" : 10
                    },
                    "indices" : 11,
                    "material" : 2
                }
            ]
        },
        {
            "name" : "Cube.003",
            "primitives" : [
                {
                    "attributes" : {
                        "POSITION" : 12,
                        "NORMAL" : 13,
                        "TEXCOORD_0" : 14
                    },
                    "indices" : 15,
                    "material" : 1
                }
            ]
        },
        {
            "name" : "Cube.004",
            "primitives" : [
                {
                    "attributes" : {
                        "POSITION" : 16,
                        "NORMAL" : 17,
                        "TEXCOORD_0" : 18
                    },
                    "indices" : 11,
                    "material" : 2
                }
            ]
        }
    ],
    "textures" : [
        {
            "sampler" : 0,
            "source" : 0
        }
    ],
    "images" : [
        {
            "bufferView" : 4,
            "mimeType" : "image/png",
            "name" : "color-palette-01"
        }
    ],
    "accessors" : [
        {
            "bufferView" : 0,
            "componentType" : 5126,
            "count" : 1396,
            "max" : [
                2.6311378479003906,
                9.479436874389648,
                8.257986068725586
            ],
            "min" : [
                -2.6311378479003906,
                0.01939260959625244,
                -0.42400631308555603
            ],
            "type" : "VEC3"
        },
        {
            "bufferView" : 1,
            "componentType" : 5126,
            "count" : 1396,
            "type" : "VEC3"
        },
        {
            "bufferView" : 2,
            "componentType" : 5126,
            "count" : 1396,
            "type" : "VEC2"
        },
        {
            "bufferView" : 3,
            "componentType" : 5123,
            "count" : 2670,
            "type" : "SCALAR"
        },
        {
            "bufferView" : 5,
            "componentType" : 5126,
            "count" : 1182,
            "max" : [
                1.682738184928894,
                5.803357124328613,
                0.6236937046051025
            ],
            "min" : [
                -1.682738184928894,
                2.039243698120117,
                0.35072004795074463
            ],
            "type" : "VEC3"
        },
        {
            "bufferView" : 6,
            "componentType" : 5126,
            "count" : 1182,
            "type" : "VEC3"
        },
        {
            "bufferView" : 7,
            "componentType" : 5126,
            "count" : 1182,
            "type" : "VEC2"
        },
        {
            "bufferView" : 8,
            "componentType" : 5123,
            "count" : 1884,
            "type" : "SCALAR"
        },
        {
            "bufferView" : 9,
            "componentType" : 5126,
            "count" : 122,
            "max" : [
                6.541712284088135,
                0.9999990463256836,
                0.7342207431793213
            ],
            "min" : [
                -1.5514483451843262,
                -1.0000009536743164,
                -59.695560455322266
            ],
            "type" : "VEC3"
        },
        {
            "bufferView" : 10,
            "componentType" : 5126,
            "count" : 122,
            "type" : "VEC3"
        },
        {
            "bufferView" : 11,
            "componentType" : 5126,
            "count" : 122,
            "type" : "VEC2"
        },
        {
            "bufferView" : 12,
            "componentType" : 5123,
            "count" : 198,
            "type" : "SCALAR"
        },
        {
            "bufferView" : 13,
            "componentType" : 5126,
            "count" : 704,
            "max" : [
                2.586643695831299,
                9.831192970275879,
                -0.4214213490486145
            ],
            "min" : [
                -2.586643695831299,
                6.930695533752441,
                -0.8594859838485718
            ],
            "type" : "VEC3"
        },
        {
            "bufferView" : 14,
            "componentType" : 5126,
            "count" : 704,
            "type" : "VEC3"
        },
        {
            "bufferView" : 15,
            "componentType" : 5126,
            "count" : 704,
            "type" : "VEC2"
        },
        {
            "bufferView" : 16,
            "componentType" : 5123,
            "count" : 1056,
            "type" : "SCALAR"
        },
        {
            "bufferView" : 17,
            "componentType" : 5126,
            "count" : 122,
            "max" : [
                6.541712284088135,
                0.9999990463256836,
                0.7342207431793213
            ],
            "min" : [
                -5.960464477539063e-08,
                -1.0000009536743164,
                -59.695560455322266
            ],
            "type" : "VEC3"
        },
        {
            "bufferView" : 18,
            "componentType" : 5126,
            "count" : 122,
            "type" : "VEC3"
        },
        {
            "bufferView" : 19,
            "componentType" : 5126,
            "count" : 122,
            "type" : "VEC2"
        }
    ],
    "bufferViews" : [
        {
            "buffer" : 0,
            "byteLength" : 16752,
            "byteOffset" : 0
        },
        {
            "buffer" : 0,
            "byteLength" : 16752,
            "byteOffset" : 16752
        },
        {
            "buffer" : 0,
            "byteLength" : 11168,
            "byteOffset" : 33504
        },
        {
            "buffer" : 0,
            "byteLength" : 5340,
            "byteOffset" : 44672
        },
        {
            "buffer" : 0,
            "byteLength" : 1126,
            "byteOffset" : 50012
        },
        {
            "buffer" : 0,
            "byteLength" : 14184,
            "byteOffset" : 51140
        },
        {
            "buffer" : 0,
            "byteLength" : 14184,
            "byteOffset" : 65324
        },
        {
            "buffer" : 0,
            "byteLength" : 9456,
            "byteOffset" : 79508
        },
        {
            "buffer" : 0,
            "byteLength" : 3768,
            "byteOffset" : 88964
        },
        {
            "buffer" : 0,
            "byteLength" : 1464,
            "byteOffset" : 92732
        },
        {
            "buffer" : 0,
            "byteLength" : 1464,
            "byteOffset" : 94196
        },
        {
            "buffer" : 0,
            "byteLength" : 976,
            "byteOffset" : 95660
        },
        {
            "buffer" : 0,
            "byteLength" : 396,
            "byteOffset" : 96636
        },
        {
            "buffer" : 0,
            "byteLength" : 8448,
            "byteOffset" : 97032
        },
        {
            "buffer" : 0,
            "byteLength" : 8448,
            "byteOffset" : 105480
        },
        {
            "buffer" : 0,
            "byteLength" : 5632,
            "byteOffset" : 113928
        },
        {
            "buffer" : 0,
            "byteLength" : 2112,
            "byteOffset" : 119560
        },
        {
            "buffer" : 0,
            "byteLength" : 1464,
            "byteOffset" : 121672
        },
        {
            "buffer" : 0,
            "byteLength" : 1464,
            "byteOffset" : 123136
        },
        {
            "buffer" : 0,
            "byteLength" : 976,
            "byteOffset" : 124600
        }
    ],
    "samplers" : [
        {
            "magFilter" : 9728,
            "minFilter" : 9984
        }
    ],
    "buffers" : [
        {
            "byteLength" : 125576,
            "uri" : "data:application/octet-stream;base64,"
        }
    ]
}
