{
    "asset" : {
        "generator" : "Khronos glTF Blender I/O v1.8.19",
        "version" : "2.0"
    },
    "scene" : 0,
    "scenes" : [
        {
            "name" : "Scene",
            "nodes" : [
                0
            ]
        }
    ],
    "nodes" : [
        {
            "mesh" : 0,
            "name" : "tree",
            "scale" : [
                1.325985312461853,
                1.325985312461853,
                1.325985312461853
            ],
            "translation" : [
                -1.2611300945281982,
                5.859711170196533,
                2.5494296550750732
            ]
        }
    ],
    "materials" : [
        {
            "doubleSided" : true,
            "name" : "Material.001",
            "pbrMetallicRoughness" : {
                "baseColorTexture" : {
                    "index" : 0
                },
                "metallicFactor" : 0
            }
        }
    ],
    "meshes" : [
        {
            "name" : "Icosphere.017",
            "primitives" : [
                {
                    "attributes" : {
                        "POSITION" : 0,
                        "NORMAL" : 1,
                        "TEXCOORD_0" : 2
                    },
                    "indices" : 3,
                    "material" : 0
                }
            ]
        }
    ],
    "textures" : [
        {
            "sampler" : 0,
            "source" : 0
        }
    ],
    "images" : [
        {
            "bufferView" : 4,
            "mimeType" : "image/png",
            "name" : "color-palette-01"
        }
    ],
    "accessors" : [
        {
            "bufferView" : 0,
            "componentType" : 5126,
            "count" : 5563,
            "max" : [
                8.564513206481934,
                6.325136184692383,
                3.464958667755127
            ],
            "min" : [
                -4.269455909729004,
                -4.491905212402344,
                -7.358463764190674
            ],
            "type" : "VEC3"
        },
        {
            "bufferView" : 1,
            "componentType" : 5126,
            "count" : 5563,
            "type" : "VEC3"
        },
        {
            "bufferView" : 2,
            "componentType" : 5126,
            "count" : 5563,
            "type" : "VEC2"
        },
        {
            "bufferView" : 3,
            "componentType" : 5123,
            "count" : 11748,
            "type" : "SCALAR"
        }
    ],
    "bufferViews" : [
        {
            "buffer" : 0,
            "byteLength" : 66756,
            "byteOffset" : 0
        },
        {
            "buffer" : 0,
            "byteLength" : 66756,
            "byteOffset" : 66756
        },
        {
            "buffer" : 0,
            "byteLength" : 44504,
            "byteOffset" : 133512
        },
        {
            "buffer" : 0,
            "byteLength" : 23496,
            "byteOffset" : 178016
        },
        {
            "buffer" : 0,
            "byteLength" : 1126,
            "byteOffset" : 201512
        }
    ],
    "samplers" : [
        {
            "magFilter" : 9728,
            "minFilter" : 9984
        }
    ],
    "buffers" : [
        {
            "byteLength" : 202640,
            "uri" : "data:application/octet-stream;base64,"
        }
    ]
}
