{
    "asset" : {
        "generator" : "Khronos glTF Blender I/O v1.8.19",
        "version" : "2.0"
    },
    "scene" : 0,
    "scenes" : [
        {
            "name" : "Scene",
            "nodes" : [
                0
            ]
        }
    ],
    "nodes" : [
        {
            "mesh" : 0,
            "name" : "linkedIn",
            "rotation" : [
                0.7071068286895752,
                0,
                0,
                0.7071068286895752
            ],
            "translation" : [
                0,
                0,
                -0.01989000476896763
            ]
        }
    ],
    "materials" : [
        {
            "doubleSided" : true,
            "emissiveFactor" : [
                1,
                0.37073034793138504,
                1
            ],
            "name" : "glow-purple",
            "pbrMetallicRoughness" : {}
        }
    ],
    "meshes" : [
        {
            "name" : "text",
            "primitives" : [
                {
                    "attributes" : {
                        "POSITION" : 0,
                        "NORMAL" : 1,
                        "TEXCOORD_0" : 2
                    },
                    "indices" : 3,
                    "material" : 0
                }
            ]
        }
    ],
    "accessors" : [
        {
            "bufferView" : 0,
            "componentType" : 5126,
            "count" : 556,
            "max" : [
                0.38872185349464417,
                0,
                0.009558196179568768
            ],
            "min" : [
                -0.3486781716346741,
                0,
                -0.20044182240962982
            ],
            "type" : "VEC3"
        },
        {
            "bufferView" : 1,
            "componentType" : 5126,
            "count" : 556,
            "type" : "VEC3"
        },
        {
            "bufferView" : 2,
            "componentType" : 5126,
            "count" : 556,
            "type" : "VEC2"
        },
        {
            "bufferView" : 3,
            "componentType" : 5123,
            "count" : 1239,
            "type" : "SCALAR"
        }
    ],
    "bufferViews" : [
        {
            "buffer" : 0,
            "byteLength" : 6672,
            "byteOffset" : 0
        },
        {
            "buffer" : 0,
            "byteLength" : 6672,
            "byteOffset" : 6672
        },
        {
            "buffer" : 0,
            "byteLength" : 4448,
            "byteOffset" : 13344
        },
        {
            "buffer" : 0,
            "byteLength" : 2478,
            "byteOffset" : 17792
        }
    ],
    "buffers" : [
        {
            "byteLength" : 20272,
            "uri" : "data:application/octet-stream;base64,"
        }
    ]
}
