{
    "asset" : {
        "generator" : "Khronos glTF Blender I/O v1.8.19",
        "version" : "2.0"
    },
    "scene" : 0,
    "scenes" : [
        {
            "name" : "Scene",
            "nodes" : [
                0,
                1,
                2
            ]
        }
    ],
    "nodes" : [
        {
            "mesh" : 0,
            "name" : "headTo",
            "rotation" : [
                0.7071068286895752,
                0,
                0,
                0.7071068286895752
            ],
            "translation" : [
                0,
                -0.007722171489149332,
                -0.01989000476896763
            ]
        },
        {
            "mesh" : 1,
            "name" : "source",
            "rotation" : [
                0.7071068286895752,
                0,
                0,
                0.7071068286895752
            ],
            "translation" : [
                0,
                0,
                -0.01989005133509636
            ]
        },
        {
            "mesh" : 2,
            "name" : "code",
            "rotation" : [
                0.7022911906242371,
                -0.08238394558429718,
                -0.08238396793603897,
                0.7022911310195923
            ],
            "translation" : [
                0,
                0,
                -0.019890019670128822
            ]
        }
    ],
    "materials" : [
        {
            "doubleSided" : true,
            "emissiveFactor" : [
                0,
                1,
                1
            ],
            "name" : "glow-blue",
            "pbrMetallicRoughness" : {}
        },
        {
            "doubleSided" : true,
            "emissiveFactor" : [
                1,
                0.2681114710867405,
                0
            ],
            "name" : "glow-brown",
            "pbrMetallicRoughness" : {}
        }
    ],
    "meshes" : [
        {
            "name" : "text",
            "primitives" : [
                {
                    "attributes" : {
                        "POSITION" : 0,
                        "NORMAL" : 1,
                        "TEXCOORD_0" : 2
                    },
                    "indices" : 3,
                    "material" : 0
                }
            ]
        },
        {
            "name" : "text.001",
            "primitives" : [
                {
                    "attributes" : {
                        "POSITION" : 4,
                        "NORMAL" : 5,
                        "TEXCOORD_0" : 6
                    },
                    "indices" : 7,
                    "material" : 1
                }
            ]
        },
        {
            "name" : "text.002",
            "primitives" : [
                {
                    "attributes" : {
                        "POSITION" : 8,
                        "NORMAL" : 9,
                        "TEXCOORD_0" : 10
                    },
                    "indices" : 11,
                    "material" : 1
                }
            ]
        }
    ],
    "accessors" : [
        {
            "bufferView" : 0,
            "componentType" : 5126,
            "count" : 268,
            "max" : [
                0.19760042428970337,
                0,
                0.00183602434117347
            ],
            "min" : [
                -0.9983797669410706,
                0,
                -0.20816399157047272
            ],
            "type" : "VEC3"
        },
        {
            "bufferView" : 1,
            "componentType" : 5126,
            "count" : 268,
            "type" : "VEC3"
        },
        {
            "bufferView" : 2,
            "componentType" : 5126,
            "count" : 268,
            "type" : "VEC2"
        },
        {
            "bufferView" : 3,
            "componentType" : 5123,
            "count" : 561,
            "type" : "SCALAR"
        },
        {
            "bufferView" : 4,
            "componentType" : 5126,
            "count" : 673,
            "max" : [
                0.49827685952186584,
                0,
                0.0018525482155382633
            ],
            "min" : [
                0.27837681770324707,
                0,
                -1.255447506904602
            ],
            "type" : "VEC3"
        },
        {
            "bufferView" : 5,
            "componentType" : 5126,
            "count" : 673,
            "type" : "VEC3"
        },
        {
            "bufferView" : 6,
            "componentType" : 5126,
            "count" : 673,
            "type" : "VEC2"
        },
        {
            "bufferView" : 7,
            "componentType" : 5123,
            "count" : 1476,
            "type" : "SCALAR"
        },
        {
            "bufferView" : 8,
            "componentType" : 5126,
            "count" : 342,
            "max" : [
                0.6651999354362488,
                0,
                -0.1380605399608612
            ],
            "min" : [
                0.44529989361763,
                0,
                -0.9753605723381042
            ],
            "type" : "VEC3"
        },
        {
            "bufferView" : 9,
            "componentType" : 5126,
            "count" : 342,
            "type" : "VEC3"
        },
        {
            "bufferView" : 10,
            "componentType" : 5126,
            "count" : 342,
            "type" : "VEC2"
        },
        {
            "bufferView" : 11,
            "componentType" : 5123,
            "count" : 768,
            "type" : "SCALAR"
        }
    ],
    "bufferViews" : [
        {
            "buffer" : 0,
            "byteLength" : 3216,
            "byteOffset" : 0
        },
        {
            "buffer" : 0,
            "byteLength" : 3216,
            "byteOffset" : 3216
        },
        {
            "buffer" : 0,
            "byteLength" : 2144,
            "byteOffset" : 6432
        },
        {
            "buffer" : 0,
            "byteLength" : 1122,
            "byteOffset" : 8576
        },
        {
            "buffer" : 0,
            "byteLength" : 8076,
            "byteOffset" : 9700
        },
        {
            "buffer" : 0,
            "byteLength" : 8076,
            "byteOffset" : 17776
        },
        {
            "buffer" : 0,
            "byteLength" : 5384,
            "byteOffset" : 25852
        },
        {
            "buffer" : 0,
            "byteLength" : 2952,
            "byteOffset" : 31236
        },
        {
            "buffer" : 0,
            "byteLength" : 4104,
            "byteOffset" : 34188
        },
        {
            "buffer" : 0,
            "byteLength" : 4104,
            "byteOffset" : 38292
        },
        {
            "buffer" : 0,
            "byteLength" : 2736,
            "byteOffset" : 42396
        },
        {
            "buffer" : 0,
            "byteLength" : 1536,
            "byteOffset" : 45132
        }
    ],
    "buffers" : [
        {
            "byteLength" : 46668,
            "uri" : "data:application/octet-stream;base64,"
        }
    ]
}
