{
    "asset" : {
        "generator" : "Khronos glTF Blender I/O v1.8.19",
        "version" : "2.0"
    },
    "scene" : 0,
    "scenes" : [
        {
            "name" : "Scene",
            "nodes" : [
                0,
                1,
                2
            ]
        }
    ],
    "nodes" : [
        {
            "mesh" : 0,
            "name" : "takeMeTo",
            "rotation" : [
                0.7071068286895752,
                0,
                0,
                0.7071068286895752
            ],
            "translation" : [
                0,
                -0.007722171489149332,
                -0.01989000476896763
            ]
        },
        {
            "mesh" : 1,
            "name" : "source",
            "rotation" : [
                0.7071068286895752,
                0,
                0,
                0.7071068286895752
            ],
            "translation" : [
                0,
                -0.007722171489149332,
                -0.01989005133509636
            ]
        },
        {
            "mesh" : 2,
            "name" : "code",
            "rotation" : [
                0.7022911906242371,
                -0.08238394558429718,
                -0.08238396793603897,
                0.7022911310195923
            ],
            "translation" : [
                0,
                -0.007722172420471907,
                -0.019890012219548225
            ]
        }
    ],
    "materials" : [
        {
            "doubleSided" : true,
            "emissiveFactor" : [
                0,
                1,
                1
            ],
            "name" : "glow-blue",
            "pbrMetallicRoughness" : {}
        },
        {
            "doubleSided" : true,
            "emissiveFactor" : [
                1,
                0.2681114710867405,
                0
            ],
            "name" : "glow-brown",
            "pbrMetallicRoughness" : {}
        }
    ],
    "meshes" : [
        {
            "name" : "text",
            "primitives" : [
                {
                    "attributes" : {
                        "POSITION" : 0,
                        "NORMAL" : 1,
                        "TEXCOORD_0" : 2
                    },
                    "indices" : 3,
                    "material" : 0
                }
            ]
        },
        {
            "name" : "text.001",
            "primitives" : [
                {
                    "attributes" : {
                        "POSITION" : 4,
                        "NORMAL" : 5,
                        "TEXCOORD_0" : 6
                    },
                    "indices" : 7,
                    "material" : 1
                }
            ]
        },
        {
            "name" : "text.002",
            "primitives" : [
                {
                    "attributes" : {
                        "POSITION" : 8,
                        "NORMAL" : 9,
                        "TEXCOORD_0" : 10
                    },
                    "indices" : 11,
                    "material" : 1
                }
            ]
        }
    ],
    "accessors" : [
        {
            "bufferView" : 0,
            "componentType" : 5126,
            "count" : 227,
            "max" : [
                0.5712804198265076,
                0,
                0.00183602434117347
            ],
            "min" : [
                -1.015779733657837,
                0,
                -0.20816399157047272
            ],
            "type" : "VEC3"
        },
        {
            "bufferView" : 1,
            "componentType" : 5126,
            "count" : 227,
            "type" : "VEC3"
        },
        {
            "bufferView" : 2,
            "componentType" : 5126,
            "count" : 227,
            "type" : "VEC2"
        },
        {
            "bufferView" : 3,
            "componentType" : 5123,
            "count" : 483,
            "type" : "SCALAR"
        },
        {
            "bufferView" : 4,
            "componentType" : 5126,
            "count" : 656,
            "max" : [
                0.8545749187469482,
                0,
                -0.005869639106094837
            ],
            "min" : [
                0.6346749067306519,
                0,
                -1.263169765472412
            ],
            "type" : "VEC3"
        },
        {
            "bufferView" : 5,
            "componentType" : 5126,
            "count" : 656,
            "type" : "VEC3"
        },
        {
            "bufferView" : 6,
            "componentType" : 5126,
            "count" : 656,
            "type" : "VEC2"
        },
        {
            "bufferView" : 7,
            "componentType" : 5123,
            "count" : 1476,
            "type" : "SCALAR"
        },
        {
            "bufferView" : 8,
            "componentType" : 5126,
            "count" : 348,
            "max" : [
                1.0100380182266235,
                0,
                -0.22803114354610443
            ],
            "min" : [
                0.7901380658149719,
                0,
                -1.065331220626831
            ],
            "type" : "VEC3"
        },
        {
            "bufferView" : 9,
            "componentType" : 5126,
            "count" : 348,
            "type" : "VEC3"
        },
        {
            "bufferView" : 10,
            "componentType" : 5126,
            "count" : 348,
            "type" : "VEC2"
        },
        {
            "bufferView" : 11,
            "componentType" : 5123,
            "count" : 768,
            "type" : "SCALAR"
        }
    ],
    "bufferViews" : [
        {
            "buffer" : 0,
            "byteLength" : 2724,
            "byteOffset" : 0
        },
        {
            "buffer" : 0,
            "byteLength" : 2724,
            "byteOffset" : 2724
        },
        {
            "buffer" : 0,
            "byteLength" : 1816,
            "byteOffset" : 5448
        },
        {
            "buffer" : 0,
            "byteLength" : 966,
            "byteOffset" : 7264
        },
        {
            "buffer" : 0,
            "byteLength" : 7872,
            "byteOffset" : 8232
        },
        {
            "buffer" : 0,
            "byteLength" : 7872,
            "byteOffset" : 16104
        },
        {
            "buffer" : 0,
            "byteLength" : 5248,
            "byteOffset" : 23976
        },
        {
            "buffer" : 0,
            "byteLength" : 2952,
            "byteOffset" : 29224
        },
        {
            "buffer" : 0,
            "byteLength" : 4176,
            "byteOffset" : 32176
        },
        {
            "buffer" : 0,
            "byteLength" : 4176,
            "byteOffset" : 36352
        },
        {
            "buffer" : 0,
            "byteLength" : 2784,
            "byteOffset" : 40528
        },
        {
            "buffer" : 0,
            "byteLength" : 1536,
            "byteOffset" : 43312
        }
    ],
    "buffers" : [
        {
            "byteLength" : 44848,
            "uri" : "data:application/octet-stream;base64,"
        }
    ]
}
