{
    "asset" : {
        "generator" : "Khronos glTF Blender I/O v1.8.19",
        "version" : "2.0"
    },
    "scene" : 0,
    "scenes" : [
        {
            "name" : "Scene",
            "nodes" : [
                0
            ]
        }
    ],
    "nodes" : [
        {
            "mesh" : 0,
            "name" : "linkedIn",
            "rotation" : [
                0.7071068286895752,
                0,
                0,
                0.7071068286895752
            ],
            "translation" : [
                0,
                0,
                -0.01989002153277397
            ]
        }
    ],
    "materials" : [
        {
            "doubleSided" : true,
            "emissiveFactor" : [
                1,
                0.37073034793138504,
                1
            ],
            "name" : "glow-purple",
            "pbrMetallicRoughness" : {}
        }
    ],
    "meshes" : [
        {
            "name" : "text",
            "primitives" : [
                {
                    "attributes" : {
                        "POSITION" : 0,
                        "NORMAL" : 1,
                        "TEXCOORD_0" : 2
                    },
                    "indices" : 3,
                    "material" : 0
                }
            ]
        }
    ],
    "accessors" : [
        {
            "bufferView" : 0,
            "componentType" : 5126,
            "count" : 1865,
            "max" : [
                1.398390293121338,
                0,
                0.005732433870434761
            ],
            "min" : [
                -1.3983900547027588,
                0,
                -0.924267590045929
            ],
            "type" : "VEC3"
        },
        {
            "bufferView" : 1,
            "componentType" : 5126,
            "count" : 1865,
            "type" : "VEC3"
        },
        {
            "bufferView" : 2,
            "componentType" : 5126,
            "count" : 1865,
            "type" : "VEC2"
        },
        {
            "bufferView" : 3,
            "componentType" : 5123,
            "count" : 4122,
            "type" : "SCALAR"
        }
    ],
    "bufferViews" : [
        {
            "buffer" : 0,
            "byteLength" : 22380,
            "byteOffset" : 0
        },
        {
            "buffer" : 0,
            "byteLength" : 22380,
            "byteOffset" : 22380
        },
        {
            "buffer" : 0,
            "byteLength" : 14920,
            "byteOffset" : 44760
        },
        {
            "buffer" : 0,
            "byteLength" : 8244,
            "byteOffset" : 59680
        }
    ],
    "buffers" : [
        {
            "byteLength" : 67924,
            "uri" : "data:application/octet-stream;base64,"
        }
    ]
}
